<svg xmlns="http://www.w3.org/2000/svg" class="chart" width="1180" height="520" viewBox="0 0 1180 520" role="img"><rect x="0" y="0" width="1180" height="520" rx="8" fill="#101419"/><line x1="62" x2="1152" y1="403.0121212121175" y2="403.0121212121175" stroke="#e8edf5" stroke-width="1" stroke-dasharray="5 5" opacity="0.75"/><text x="1062" y="397.0121212121175" fill="#e8edf5" font-size="11">OPEN 189.84</text><line x1="62" x2="62" y1="32" y2="474" stroke="#253246" stroke-width="1" opacity="0.7"/><text x="45" y="504" fill="#91a1b5" font-size="10">09:30</text><line x1="280.72909698996654" x2="280.72909698996654" y1="32" y2="474" stroke="#253246" stroke-width="1" opacity="0.7"/><text x="263.72909698996654" y="504" fill="#91a1b5" font-size="10">09:31</text><line x1="499.45819397993307" x2="499.45819397993307" y1="32" y2="474" stroke="#253246" stroke-width="1" opacity="0.7"/><text x="482.45819397993307" y="504" fill="#91a1b5" font-size="10">09:32</text><line x1="718.1872909698997" x2="718.1872909698997" y1="32" y2="474" stroke="#253246" stroke-width="1" opacity="0.7"/><text x="701.1872909698997" y="504" fill="#91a1b5" font-size="10">09:33</text><line x1="936.9163879598661" x2="936.9163879598661" y1="32" y2="474" stroke="#253246" stroke-width="1" opacity="0.7"/><text x="919.9163879598661" y="504" fill="#91a1b5" font-size="10">09:34</text><rect x="62" y="32" width="72.90969899665552" height="442" fill="#ffcc66" opacity="0.055"/><text x="70" y="48" fill="#ffcc66" font-size="11">initial impulse</text><line x1="62" x2="62" y1="403.0121212121175" y2="474" stroke="#f26464" stroke-width="1" opacity="0.88"/><rect x="60.98266666666667" y="403.0121212121175" width="2.034666666666667" height="28.1272727272775" fill="#f26464" opacity="0.9"/><line x1="65.64548494983278" x2="65.64548494983278" y1="404.3515151515102" y2="465.96363636363606" stroke="#36c486" stroke-width="1" opacity="0.88"/><rect x="64.62815161649944" y="444.5333333333298" width="2.034666666666667" height="1" fill="#36c486" opacity="0.9"/><line x1="69.29096989966555" x2="69.29096989966555" y1="393.63636363636084" y2="457.92727272727217" stroke="#36c486" stroke-width="1" opacity="0.88"/><rect x="68.27363656633221" y="411.0484848484814" width="2.034666666666667" height="33.484848484848385" fill="#36c486" opacity="0.9"/><line x1="72.93645484949833" x2="72.93645484949833" y1="393.63636363636084" y2="457.92727272727217" stroke="#36c486" stroke-width="1" opacity="0.88"/><rect x="71.91912151616499" y="425.7818181818165" width="2.034666666666667" height="30.806060606062942" fill="#36c486" opacity="0.9"/><line x1="76.58193979933111" x2="76.58193979933111" y1="404.3515151515102" y2="455.2484848484867" stroke="#f26464" stroke-width="1" opacity="0.88"/><rect x="75.56460646599777" y="423.1030303030311" width="2.034666666666667" height="5.357575757570828" fill="#f26464" opacity="0.9"/><line x1="80.22742474916387" x2="80.22742474916387" y1="388.27878787879" y2="447.1853333333341" stroke="#36c486" stroke-width="1" opacity="0.88"/><rect x="79.21009141583053" y="393.63636363636084" width="2.034666666666667" height="48.218181818183496" fill="#36c486" opacity="0.9"/><line x1="83.87290969899665" x2="83.87290969899665" y1="337.38181818181346" y2="454.5252121212128" stroke="#36c486" stroke-width="1" opacity="0.88"/><rect x="82.85557636566331" y="341.39999999999924" width="2.034666666666667" height="49.55757575757616" fill="#36c486" opacity="0.9"/><line x1="87.51839464882943" x2="87.51839464882943" y1="313.27272727272936" y2="451.79284848484986" stroke="#36c486" stroke-width="1" opacity="0.88"/><rect x="86.50106131549609" y="332.0242424242426" width="2.034666666666667" height="14.733333333335167" fill="#36c486" opacity="0.9"/><line x1="91.1638795986622" x2="91.1638795986622" y1="291.842424242423" y2="457.92727272727217" stroke="#36c486" stroke-width="1" opacity="0.88"/><rect x="90.14654626532887" y="297.2000000000015" width="2.034666666666667" height="30.806060606055325" fill="#36c486" opacity="0.9"/><line x1="94.80936454849498" x2="94.80936454849498" y1="286.4848484848446" y2="459.2666666666649" stroke="#36c486" stroke-width="1" opacity="0.88"/><rect x="93.79203121516164" y="294.52121212120846" width="2.034666666666667" height="2.6787878787930595" fill="#36c486" opacity="0.9"/><line x1="98.45484949832776" x2="98.45484949832776" y1="291.842424242423" y2="452.56969696969367" stroke="#36c486" stroke-width="1" opacity="0.88"/><rect x="97.43751616499442" y="307.9151515151509" width="2.034666666666667" height="44.19999999999766" fill="#36c486" opacity="0.9"/><line x1="102.10033444816054" x2="102.10033444816054" y1="251.66060606060347" y2="315.924727272726" stroke="#36c486" stroke-width="1" opacity="0.88"/><rect x="101.0830011148272" y="257.0181818181819" width="2.034666666666667" height="56.25454545454744" fill="#36c486" opacity="0.9"/><line x1="105.7458193979933" x2="105.7458193979933" y1="246.3030303030326" y2="262.3757575757528" stroke="#36c486" stroke-width="1" opacity="0.88"/><rect x="104.72848606465996" y="256.99139393939316" width="2.034666666666667" height="1" fill="#36c486" opacity="0.9"/><line x1="109.3913043478261" x2="109.3913043478261" y1="243.62424242423955" y2="262.3757575757528" stroke="#36c486" stroke-width="1" opacity="0.88"/><rect x="108.37397101449275" y="251.84812121211723" width="2.034666666666667" height="7.848848484850123" fill="#36c486" opacity="0.9"/><line x1="113.03678929765886" x2="113.03678929765886" y1="238.23987878787992" y2="254.07151515151642" stroke="#36c486" stroke-width="1" opacity="0.88"/><rect x="112.01945596432552" y="240.9454545454541" width="2.034666666666667" height="12.05454545454208" fill="#36c486" opacity="0.9"/><line x1="116.68227424749163" x2="116.68227424749163" y1="232.935878787879" y2="329.3454545454495" stroke="#f26464" stroke-width="1" opacity="0.88"/><rect x="115.6649409141583" y="242.28484848484683" width="2.034666666666667" height="1.0715151515126706" fill="#f26464" opacity="0.9"/><line x1="120.32775919732441" x2="120.32775919732441" y1="232.90909090909022" y2="244.96363636363228" stroke="#36c486" stroke-width="1" opacity="0.88"/><rect x="119.31042586399107" y="235.58787878787567" width="2.034666666666667" height="7.9024242424276565" fill="#36c486" opacity="0.9"/><line x1="123.97324414715719" x2="123.97324414715719" y1="233.65915151515287" y2="278.44848484848063" stroke="#f26464" stroke-width="1" opacity="0.88"/><rect x="122.95591081382385" y="238.2666666666687" width="2.034666666666667" height="40.181818181811934" fill="#f26464" opacity="0.9"/><line x1="127.61872909698997" x2="127.61872909698997" y1="278.44848484848063" y2="310.5939393939363" stroke="#f26464" stroke-width="1" opacity="0.88"/><rect x="126.60139576365663" y="286.4848484848446" width="2.034666666666667" height="18.75151515152089" fill="#f26464" opacity="0.9"/><line x1="131.26421404682276" x2="131.26421404682276" y1="305.23636363636547" y2="323.9878787878787" stroke="#f26464" stroke-width="1" opacity="0.88"/><rect x="130.24688071348942" y="305.23636363636547" width="2.034666666666667" height="14.733333333327494" fill="#f26464" opacity="0.9"/><line x1="134.90969899665552" x2="134.90969899665552" y1="290.50303030303036" y2="323.9878787878787" stroke="#36c486" stroke-width="1" opacity="0.88"/><rect x="133.89236566332218" y="297.2000000000015" width="2.034666666666667" height="18.751515151513274" fill="#36c486" opacity="0.9"/><line x1="138.55518394648828" x2="138.55518394648828" y1="289.9672727272702" y2="310.5939393939363" stroke="#f26464" stroke-width="1" opacity="0.88"/><rect x="137.53785061315494" y="294.52121212120846" width="2.034666666666667" height="8.036363636363944" fill="#f26464" opacity="0.9"/><line x1="142.20066889632108" x2="142.20066889632108" y1="298.53939393939424" y2="352.91878787878875" stroke="#f26464" stroke-width="1" opacity="0.88"/><rect x="141.18333556298774" y="307.9151515151509" width="2.034666666666667" height="45.00363636363784" fill="#f26464" opacity="0.9"/><line x1="145.84615384615384" x2="145.84615384615384" y1="352.11515151514857" y2="377.56363636363307" stroke="#f26464" stroke-width="1" opacity="0.88"/><rect x="144.8288205128205" y="353.4545454545413" width="2.034666666666667" height="13.581454545456154" fill="#f26464" opacity="0.9"/><line x1="149.4916387959866" x2="149.4916387959866" y1="353.4545454545413" y2="396.3151515151463" stroke="#f26464" stroke-width="1" opacity="0.88"/><rect x="148.47430546265326" y="365.509090909091" width="2.034666666666667" height="4.098545454544421" fill="#f26464" opacity="0.9"/><line x1="153.1371237458194" x2="153.1371237458194" y1="364.1696969696983" y2="388.27878787879" stroke="#f26464" stroke-width="1" opacity="0.88"/><rect x="152.11979041248605" y="369.5272727272691" width="2.034666666666667" height="8.063151515152697" fill="#f26464" opacity="0.9"/><line x1="156.7826086956522" x2="156.7826086956522" y1="363.84824242424065" y2="381.5818181818188" stroke="#36c486" stroke-width="1" opacity="0.88"/><rect x="155.76527536231885" y="376.22424242424034" width="2.034666666666667" height="5.357575757578445" fill="#36c486" opacity="0.9"/><line x1="160.42809364548495" x2="160.42809364548495" y1="366.84848484848374" y2="385.59999999999695" stroke="#f26464" stroke-width="1" opacity="0.88"/><rect x="159.4107603121516" y="368.4557575757565" width="2.034666666666667" height="9.188242424242844" fill="#f26464" opacity="0.9"/><line x1="164.0735785953177" x2="164.0735785953177" y1="349.4363636363631" y2="377.56363636363307" stroke="#36c486" stroke-width="1" opacity="0.88"/><rect x="163.05624526198437" y="357.47272727272707" width="2.034666666666667" height="14.706545454546358" fill="#36c486" opacity="0.9"/><line x1="167.7190635451505" x2="167.7190635451505" y1="345.4181818181774" y2="362.83030303029796" stroke="#f26464" stroke-width="1" opacity="0.88"/><rect x="166.70173021181716" y="354.7939393939416" width="2.034666666666667" height="1.3393939393927212" fill="#f26464" opacity="0.9"/><line x1="171.36454849498327" x2="171.36454849498327" y1="350.8025454545446" y2="380.24242424242607" stroke="#f26464" stroke-width="1" opacity="0.88"/><rect x="170.34721516164993" y="356.13333333333435" width="2.034666666666667" height="18.751515151513274" fill="#f26464" opacity="0.9"/><line x1="175.01003344481603" x2="175.01003344481603" y1="361.517696969694" y2="377.56363636363307" stroke="#36c486" stroke-width="1" opacity="0.88"/><rect x="173.9927001114827" y="361.517696969694" width="2.034666666666667" height="12.295636363640938" fill="#36c486" opacity="0.9"/><line x1="178.65551839464882" x2="178.65551839464882" y1="334.703030303028" y2="366.84848484848374" stroke="#36c486" stroke-width="1" opacity="0.88"/><rect x="177.63818506131548" y="334.703030303028" width="2.034666666666667" height="32.14545454545572" fill="#36c486" opacity="0.9"/><line x1="182.30100334448161" x2="182.30100334448161" y1="326.6666666666641" y2="350.77575757575585" stroke="#36c486" stroke-width="1" opacity="0.88"/><rect x="181.28367001114827" y="329.2115151515133" width="2.034666666666667" height="5.4915151515147045" fill="#36c486" opacity="0.9"/><line x1="185.94648829431438" x2="185.94648829431438" y1="305.23636363636547" y2="332.7743030303053" stroke="#36c486" stroke-width="1" opacity="0.88"/><rect x="184.92915496098104" y="318.63030303030024" width="2.034666666666667" height="5.357575757578445" fill="#36c486" opacity="0.9"/><line x1="189.59197324414714" x2="189.59197324414714" y1="310.8618181818163" y2="341.29284848484417" stroke="#f26464" stroke-width="1" opacity="0.88"/><rect x="188.5746399108138" y="315.9515151515148" width="2.034666666666667" height="24.10909090909172" fill="#f26464" opacity="0.9"/><line x1="193.23745819397993" x2="193.23745819397993" y1="332.0242424242426" y2="356.2404848484818" stroke="#f26464" stroke-width="1" opacity="0.88"/><rect x="192.2201248606466" y="340.0606060606065" width="2.034666666666667" height="13.393939393934772" fill="#f26464" opacity="0.9"/><line x1="196.8829431438127" x2="196.8829431438127" y1="321.33587878787444" y2="356.13333333333435" stroke="#36c486" stroke-width="1" opacity="0.88"/><rect x="195.86560981047936" y="323.9878787878787" width="2.034666666666667" height="32.145454545455664" fill="#36c486" opacity="0.9"/><line x1="200.5284280936455" x2="200.5284280936455" y1="307.99551515151717" y2="326.9345454545442" stroke="#36c486" stroke-width="1" opacity="0.88"/><rect x="199.51109476031215" y="316.32654545454227" width="2.034666666666667" height="7.661333333336415" fill="#36c486" opacity="0.9"/><line x1="204.17391304347825" x2="204.17391304347825" y1="281.15406060606244" y2="329.3454545454495" stroke="#36c486" stroke-width="1" opacity="0.88"/><rect x="203.1565797101449" y="317.2909090909075" width="2.034666666666667" height="8.036363636363888" fill="#36c486" opacity="0.9"/><line x1="207.81939799331104" x2="207.81939799331104" y1="275.79648484848394" y2="305.23636363636547" stroke="#36c486" stroke-width="1" opacity="0.88"/><rect x="206.8020646599777" y="275.79648484848394" width="2.034666666666667" height="12.027757575760972" fill="#36c486" opacity="0.9"/><line x1="211.4648829431438" x2="211.4648829431438" y1="279.78787878788097" y2="302.6647272727275" stroke="#f26464" stroke-width="1" opacity="0.88"/><rect x="210.44754960981047" y="279.78787878788097" width="2.034666666666667" height="17.385333333331744" fill="#f26464" opacity="0.9"/><line x1="215.11036789297657" x2="215.11036789297657" y1="281.1272727272737" y2="332.0242424242426" stroke="#f26464" stroke-width="1" opacity="0.88"/><rect x="214.09303455964323" y="297.1732121212127" width="2.034666666666667" height="26.81466666666597" fill="#f26464" opacity="0.9"/><line x1="218.75585284280936" x2="218.75585284280936" y1="303.89696969696513" y2="340.03381818181776" stroke="#36c486" stroke-width="1" opacity="0.88"/><rect x="217.73851950947602" y="303.89696969696513" width="2.034666666666667" height="20.090909090913556" fill="#36c486" opacity="0.9"/><line x1="222.40133779264212" x2="222.40133779264212" y1="281.1272727272737" y2="316.62121212121116" stroke="#36c486" stroke-width="1" opacity="0.88"/><rect x="221.38400445930878" y="297.8696969696979" width="2.034666666666667" height="6.0272727272672455" fill="#36c486" opacity="0.9"/><line x1="226.04682274247492" x2="226.04682274247492" y1="281.1272727272737" y2="302.5575757575724" stroke="#f26464" stroke-width="1" opacity="0.88"/><rect x="225.02948940914158" y="289.16363636363764" width="2.034666666666667" height="5.357575757570828" fill="#f26464" opacity="0.9"/><line x1="229.69230769230768" x2="229.69230769230768" y1="289.19042424242633" y2="326.6666666666641" stroke="#f26464" stroke-width="1" opacity="0.88"/><rect x="228.67497435897434" y="299.85199999999816" width="2.034666666666667" height="18.242545454549543" fill="#f26464" opacity="0.9"/><line x1="233.33779264214047" x2="233.33779264214047" y1="313.5138181818207" y2="326.6666666666641" stroke="#f26464" stroke-width="1" opacity="0.88"/><rect x="232.32045930880713" y="313.5138181818207" width="2.034666666666667" height="1.0983030303013948" fill="#f26464" opacity="0.9"/><line x1="236.98327759197323" x2="236.98327759197323" y1="315.9515151515148" y2="326.6666666666641" stroke="#f26464" stroke-width="1" opacity="0.88"/><rect x="235.9659442586399" y="319.96969696969296" width="2.034666666666667" height="6.670181818182414" fill="#f26464" opacity="0.9"/><line x1="240.628762541806" x2="240.628762541806" y1="273.09090909090975" y2="326.6666666666641" stroke="#36c486" stroke-width="1" opacity="0.88"/><rect x="239.61142920847266" y="293.18181818181574" width="2.034666666666667" height="33.484848484848385" fill="#36c486" opacity="0.9"/><line x1="244.2742474916388" x2="244.2742474916388" y1="281.10048484848494" y2="305.23636363636547" stroke="#36c486" stroke-width="1" opacity="0.88"/><rect x="243.25691415830545" y="293.18181818181574" width="2.034666666666667" height="1.3393939393927212" fill="#36c486" opacity="0.9"/><line x1="247.91973244147155" x2="247.91973244147155" y1="283.80606060605913" y2="302.5575757575724" stroke="#36c486" stroke-width="1" opacity="0.88"/><rect x="246.9023991081382" y="283.80606060605913" width="2.034666666666667" height="8.706060606060248" fill="#36c486" opacity="0.9"/><line x1="251.56521739130434" x2="251.56521739130434" y1="280.3772121212111" y2="297.2000000000015" stroke="#f26464" stroke-width="1" opacity="0.88"/><rect x="250.547884057971" y="282.4666666666664" width="2.034666666666667" height="1.3393939393927212" fill="#f26464" opacity="0.9"/><line x1="255.2107023411371" x2="255.2107023411371" y1="277.26981818182054" y2="289.16363636363764" stroke="#f26464" stroke-width="1" opacity="0.88"/><rect x="254.19336900780377" y="282.19878787878633" width="2.034666666666667" height="1.2054545454565186" fill="#f26464" opacity="0.9"/><line x1="258.8561872909699" x2="258.8561872909699" y1="281.1272727272737" y2="291.81563636363427" stroke="#f26464" stroke-width="1" opacity="0.88"/><rect x="257.83885395763656" y="281.58266666666754" width="2.034666666666667" height="6.830909090907426" fill="#f26464" opacity="0.9"/><line x1="262.5016722408027" x2="262.5016722408027" y1="283.80606060605913" y2="297.2000000000015" stroke="#36c486" stroke-width="1" opacity="0.88"/><rect x="261.48433890746935" y="283.80606060605913" width="2.034666666666667" height="5.357575757578502" fill="#36c486" opacity="0.9"/><line x1="266.1471571906354" x2="266.1471571906354" y1="262.3757575757528" y2="293.18181818181574" stroke="#36c486" stroke-width="1" opacity="0.88"/><rect x="265.1298238573021" y="275.7696969696952" width="2.034666666666667" height="5.357575757578502" fill="#36c486" opacity="0.9"/><line x1="269.7926421404682" x2="269.7926421404682" y1="266.3939393939386" y2="297.2000000000015" stroke="#f26464" stroke-width="1" opacity="0.88"/><rect x="268.7753088071349" y="278.44848484848063" width="2.034666666666667" height="16.072727272727832" fill="#f26464" opacity="0.9"/><line x1="273.438127090301" x2="273.438127090301" y1="289.16363636363764" y2="313.27272727272936" stroke="#f26464" stroke-width="1" opacity="0.88"/><rect x="272.42079375696767" y="295.8606060606012" width="2.034666666666667" height="14.73333333333511" fill="#f26464" opacity="0.9"/><line x1="277.08361204013374" x2="277.08361204013374" y1="286.4848484848446" y2="315.9515151515148" stroke="#36c486" stroke-width="1" opacity="0.88"/><rect x="276.0662787068004" y="290.77090909091044" width="2.034666666666667" height="19.82303030302586" fill="#36c486" opacity="0.9"/><line x1="280.72909698996654" x2="280.72909698996654" y1="286.4848484848446" y2="297.2000000000015" stroke="#36c486" stroke-width="1" opacity="0.88"/><rect x="279.7117636566332" y="286.4848484848446" width="2.034666666666667" height="8.036363636363888" fill="#36c486" opacity="0.9"/><line x1="284.3745819397993" x2="284.3745819397993" y1="291.842424242423" y2="323.9878787878787" stroke="#f26464" stroke-width="1" opacity="0.88"/><rect x="283.357248606466" y="291.842424242423" width="2.034666666666667" height="32.145454545455664" fill="#f26464" opacity="0.9"/><line x1="288.02006688963206" x2="288.02006688963206" y1="302.10218181817856" y2="318.63030303030024" stroke="#36c486" stroke-width="1" opacity="0.88"/><rect x="287.0027335562987" y="302.9326060606075" width="2.034666666666667" height="15.697696969692743" fill="#36c486" opacity="0.9"/><line x1="291.6655518394649" x2="291.6655518394649" y1="294.52121212120846" y2="305.3970909090905" stroke="#36c486" stroke-width="1" opacity="0.88"/><rect x="290.64821850613157" y="301.2181818181797" width="2.034666666666667" height="3.9913939393969713" fill="#36c486" opacity="0.9"/><line x1="295.31103678929765" x2="295.31103678929765" y1="294.52121212120846" y2="319.96969696969296" stroke="#f26464" stroke-width="1" opacity="0.88"/><rect x="294.2937034559643" y="301.2181818181797" width="2.034666666666667" height="18.751515151513274" fill="#f26464" opacity="0.9"/><line x1="298.9565217391304" x2="298.9565217391304" y1="297.09284848484646" y2="340.43563636363405" stroke="#f26464" stroke-width="1" opacity="0.88"/><rect x="297.93918840579704" y="321.30909090909324" width="2.034666666666667" height="18.751515151513274" fill="#f26464" opacity="0.9"/><line x1="302.60200668896323" x2="302.60200668896323" y1="321.30909090909324" y2="345.4181818181774" stroke="#f26464" stroke-width="1" opacity="0.88"/><rect x="301.5846733556299" y="340.0606060606065" width="2.034666666666667" height="2.6787878787854424" fill="#f26464" opacity="0.9"/><line x1="306.24749163879596" x2="306.24749163879596" y1="329.3454545454495" y2="348.09696969697046" stroke="#36c486" stroke-width="1" opacity="0.88"/><rect x="305.2301583054626" y="329.3454545454495" width="2.034666666666667" height="14.733333333335167" fill="#36c486" opacity="0.9"/><line x1="309.89297658862876" x2="309.89297658862876" y1="332.0242424242426" y2="366.84848484848374" stroke="#f26464" stroke-width="1" opacity="0.88"/><rect x="308.8756432552954" y="332.0242424242426" width="2.034666666666667" height="29.46666666666266" fill="#f26464" opacity="0.9"/><line x1="313.53846153846155" x2="313.53846153846155" y1="348.09696969697046" y2="366.84848484848374" stroke="#36c486" stroke-width="1" opacity="0.88"/><rect x="312.5211282051282" y="354.7939393939416" width="2.034666666666667" height="5.357575757570885" fill="#36c486" opacity="0.9"/><line x1="317.1839464882943" x2="317.1839464882943" y1="334.703030303028" y2="358.8121212121198" stroke="#36c486" stroke-width="1" opacity="0.88"/><rect x="316.16661315496094" y="345.4181818181774" width="2.034666666666667" height="9.375757575764226" fill="#36c486" opacity="0.9"/><line x1="320.8294314381271" x2="320.8294314381271" y1="338.1586666666649" y2="351.74012121212104" stroke="#f26464" stroke-width="1" opacity="0.88"/><rect x="319.81209810479373" y="346.75757575757774" width="2.034666666666667" height="1" fill="#f26464" opacity="0.9"/><line x1="324.47491638795987" x2="324.47491638795987" y1="340.0873939393953" y2="366.84848484848374" stroke="#f26464" stroke-width="1" opacity="0.88"/><rect x="323.4575830546265" y="348.09696969697046" width="2.034666666666667" height="16.072727272727832" fill="#f26464" opacity="0.9"/><line x1="328.1204013377926" x2="328.1204013377926" y1="350.77575757575585" y2="372.2060606060622" stroke="#36c486" stroke-width="1" opacity="0.88"/><rect x="327.10306800445926" y="350.77575757575585" width="2.034666666666667" height="13.393939393942446" fill="#36c486" opacity="0.9"/><line x1="331.7658862876254" x2="331.7658862876254" y1="350.1060606060595" y2="372.2060606060622" stroke="#f26464" stroke-width="1" opacity="0.88"/><rect x="330.74855295429205" y="350.3471515151508" width="2.034666666666667" height="19.18012121211831" fill="#f26464" opacity="0.9"/><line x1="335.4113712374582" x2="335.4113712374582" y1="349.4363636363631" y2="372.2060606060622" stroke="#36c486" stroke-width="1" opacity="0.88"/><rect x="334.39403790412484" y="352.11515151514857" width="2.034666666666667" height="17.412121212120553" fill="#36c486" opacity="0.9"/><line x1="339.056856187291" x2="339.056856187291" y1="364.1429090909095" y2="381.2067878787837" stroke="#f26464" stroke-width="1" opacity="0.88"/><rect x="338.03952285395764" y="364.1696969696983" width="2.034666666666667" height="17.037090909085407" fill="#f26464" opacity="0.9"/><line x1="342.7023411371237" x2="342.7023411371237" y1="372.2328484848433" y2="392.2969696969681" stroke="#36c486" stroke-width="1" opacity="0.88"/><rect x="341.68500780379037" y="380.24242424242607" width="2.034666666666667" height="1" fill="#36c486" opacity="0.9"/><line x1="346.3478260869565" x2="346.3478260869565" y1="380.24242424242607" y2="396.3151515151463" stroke="#f26464" stroke-width="1" opacity="0.88"/><rect x="345.33049275362316" y="380.24242424242607" width="2.034666666666667" height="6.696969696963606" fill="#f26464" opacity="0.9"/><line x1="349.9933110367893" x2="349.9933110367893" y1="370.86666666666184" y2="386.9393939393897" stroke="#36c486" stroke-width="1" opacity="0.88"/><rect x="348.97597770345595" y="380.0013333333348" width="2.034666666666667" height="6.938060606054876" fill="#36c486" opacity="0.9"/><line x1="353.6387959866221" x2="353.6387959866221" y1="370.4916363636343" y2="385.59999999999695" stroke="#f26464" stroke-width="1" opacity="0.88"/><rect x="352.62146265328875" y="374.8848484848476" width="2.034666666666667" height="10.71515151514933" fill="#f26464" opacity="0.9"/><line x1="357.2842809364548" x2="357.2842809364548" y1="364.1696969696983" y2="390.9575757575754" stroke="#36c486" stroke-width="1" opacity="0.88"/><rect x="356.2669476031215" y="366.84848484848374" width="2.034666666666667" height="10.71515151514933" fill="#36c486" opacity="0.9"/><line x1="360.9297658862876" x2="360.9297658862876" y1="254.3393939393965" y2="377.56363636363307" stroke="#36c486" stroke-width="1" opacity="0.88"/><rect x="359.9124325529543" y="257.0181818181819" width="2.034666666666667" height="120.54545454545115" fill="#36c486" opacity="0.9"/><line x1="364.5752508361204" x2="364.5752508361204" y1="246.3030303030326" y2="265.05454545454586" stroke="#36c486" stroke-width="1" opacity="0.88"/><rect x="363.55791750278706" y="248.98181818181803" width="2.034666666666667" height="5.3575757575784735" fill="#36c486" opacity="0.9"/><line x1="368.22073578595314" x2="368.22073578595314" y1="235.58787878787567" y2="256.9110303030269" stroke="#36c486" stroke-width="1" opacity="0.88"/><rect x="367.2034024526198" y="247.61563636363655" width="2.034666666666667" height="1.3661818181814738" fill="#36c486" opacity="0.9"/><line x1="371.86622073578593" x2="371.86622073578593" y1="230.23030303030478" y2="251.66060606060347" stroke="#36c486" stroke-width="1" opacity="0.88"/><rect x="370.8488874024526" y="238.23987878787992" width="2.034666666666667" height="13.420727272723553" fill="#36c486" opacity="0.9"/><line x1="375.5117056856187" x2="375.5117056856187" y1="208.79999999999848" y2="235.5610909090869" stroke="#36c486" stroke-width="1" opacity="0.88"/><rect x="374.4943723522854" y="228.27478787878565" width="2.034666666666667" height="5.973696969697301" fill="#36c486" opacity="0.9"/><line x1="379.1571906354515" x2="379.1571906354515" y1="204.7818181818203" y2="227.55151515151175" stroke="#f26464" stroke-width="1" opacity="0.88"/><rect x="378.1398573021182" y="219.5151515151478" width="2.034666666666667" height="8.036363636363944" fill="#f26464" opacity="0.9"/><line x1="382.80267558528425" x2="382.80267558528425" y1="211.88060606060782" y2="230.23030303030478" stroke="#36c486" stroke-width="1" opacity="0.88"/><rect x="381.7853422519509" y="216.8363636363624" width="2.034666666666667" height="2.678787878785414" fill="#36c486" opacity="0.9"/><line x1="386.44816053511704" x2="386.44816053511704" y1="182.0121212121213" y2="219.5151515151478" stroke="#36c486" stroke-width="1" opacity="0.88"/><rect x="385.4308272017837" y="198.43309090908787" width="2.034666666666667" height="18.403272727274526" fill="#36c486" opacity="0.9"/><line x1="390.09364548494983" x2="390.09364548494983" y1="186.03030303029945" y2="223.5333333333336" stroke="#f26464" stroke-width="1" opacity="0.88"/><rect x="389.0763121516165" y="186.03030303029945" width="2.034666666666667" height="20.090909090913584" fill="#f26464" opacity="0.9"/><line x1="393.73913043478257" x2="393.73913043478257" y1="176.65454545454284" y2="222.0867878787858" stroke="#36c486" stroke-width="1" opacity="0.88"/><rect x="392.7217971014492" y="179.33333333333587" width="2.034666666666667" height="21.43030303029869" fill="#36c486" opacity="0.9"/><line x1="397.38461538461536" x2="397.38461538461536" y1="173.9757575757574" y2="192.32545454545436" stroke="#36c486" stroke-width="1" opacity="0.88"/><rect x="396.367282051282" y="173.9757575757574" width="2.034666666666667" height="8.036363636363888" fill="#36c486" opacity="0.9"/><line x1="401.03010033444815" x2="401.03010033444815" y1="163.26060606060804" y2="200.76363636363456" stroke="#f26464" stroke-width="1" opacity="0.88"/><rect x="400.0127670011148" y="173.9757575757574" width="2.034666666666667" height="11.518787878789539" fill="#f26464" opacity="0.9"/><line x1="404.67558528428094" x2="404.67558528428094" y1="168.725333333334" y2="198.08484848484915" stroke="#36c486" stroke-width="1" opacity="0.88"/><rect x="403.6582519509476" y="187.3696969696998" width="2.034666666666667" height="1" fill="#36c486" opacity="0.9"/><line x1="408.3210702341137" x2="408.3210702341137" y1="173.9757575757574" y2="200.76363636363456" stroke="#f26464" stroke-width="1" opacity="0.88"/><rect x="407.30373690078034" y="182.0121212121213" width="2.034666666666667" height="13.018909090907272" fill="#f26464" opacity="0.9"/><line x1="411.96655518394647" x2="411.96655518394647" y1="165.93939393939348" y2="198.08484848484915" stroke="#36c486" stroke-width="1" opacity="0.88"/><rect x="410.9492218506131" y="171.29696969697196" width="2.034666666666667" height="16.072727272727832" fill="#36c486" opacity="0.9"/><line x1="415.61204013377926" x2="415.61204013377926" y1="160.58181818181498" y2="182.0121212121213" stroke="#f26464" stroke-width="1" opacity="0.88"/><rect x="414.5947068004459" y="174.3507878787849" width="2.034666666666667" height="7.661333333336387" fill="#f26464" opacity="0.9"/><line x1="419.257525083612" x2="419.257525083612" y1="170.89515151514803" y2="192.72727272727064" stroke="#36c486" stroke-width="1" opacity="0.88"/><rect x="418.24019175027865" y="175.31515151515012" width="2.034666666666667" height="9.375757575756609" fill="#36c486" opacity="0.9"/><line x1="422.9030100334448" x2="422.9030100334448" y1="157.90303030302957" y2="182.0121212121213" stroke="#36c486" stroke-width="1" opacity="0.88"/><rect x="421.88567670011145" y="171.29696969697196" width="2.034666666666667" height="4.018181818178164" fill="#36c486" opacity="0.9"/><line x1="426.5484949832776" x2="426.5484949832776" y1="168.75212121212274" y2="190.04848484848523" stroke="#f26464" stroke-width="1" opacity="0.88"/><rect x="425.53116164994424" y="171.29696969697196" width="2.034666666666667" height="2.705575757574195" fill="#f26464" opacity="0.9"/><line x1="430.19397993311037" x2="430.19397993311037" y1="173.9757575757574" y2="192.72727272727064" stroke="#f26464" stroke-width="1" opacity="0.88"/><rect x="429.17664659977703" y="176.65454545454284" width="2.034666666666667" height="5.357575757578445" fill="#f26464" opacity="0.9"/><line x1="433.8394648829431" x2="433.8394648829431" y1="157.90303030302957" y2="183.351515151514" stroke="#36c486" stroke-width="1" opacity="0.88"/><rect x="432.82213154960976" y="167.84133333333511" width="2.034666666666667" height="15.510181818178893" fill="#36c486" opacity="0.9"/><line x1="437.4849498327759" x2="437.4849498327759" y1="155.22424242424412" y2="179.33333333333587" stroke="#f26464" stroke-width="1" opacity="0.88"/><rect x="436.46761649944256" y="160.58181818181498" width="2.034666666666667" height="16.07272727272786" fill="#f26464" opacity="0.9"/><line x1="441.1304347826087" x2="441.1304347826087" y1="168.61818181817893" y2="198.08484848484915" stroke="#f26464" stroke-width="1" opacity="0.88"/><rect x="440.11310144927535" y="176.65454545454284" width="2.034666666666667" height="16.072727272727803" fill="#f26464" opacity="0.9"/><line x1="444.7759197324414" x2="444.7759197324414" y1="160.58181818181498" y2="187.3696969696998" stroke="#36c486" stroke-width="1" opacity="0.88"/><rect x="443.7585863991081" y="164.60000000000076" width="2.034666666666667" height="20.090909090905967" fill="#36c486" opacity="0.9"/><line x1="448.4214046822742" x2="448.4214046822742" y1="141.83030303030174" y2="174.75260606060883" stroke="#36c486" stroke-width="1" opacity="0.88"/><rect x="447.4040713489409" y="144.50909090908715" width="2.034666666666667" height="16.072727272727832" fill="#36c486" opacity="0.9"/><line x1="452.066889632107" x2="452.066889632107" y1="123.07878787878848" y2="147.1878787878802" stroke="#36c486" stroke-width="1" opacity="0.88"/><rect x="451.04955629877367" y="140.89272727272532" width="2.034666666666667" height="3.6163636363618252" fill="#36c486" opacity="0.9"/><line x1="455.7123745819398" x2="455.7123745819398" y1="131.11515151515238" y2="152.5454545454511" stroke="#36c486" stroke-width="1" opacity="0.88"/><rect x="454.69504124860646" y="136.47272727272326" width="2.034666666666667" height="10.688363636368194" fill="#36c486" opacity="0.9"/><line x1="459.35785953177253" x2="459.35785953177253" y1="126.13260606060905" y2="139.52654545454382" stroke="#36c486" stroke-width="1" opacity="0.88"/><rect x="458.3405261984392" y="131.11515151515238" width="2.034666666666667" height="4.018181818178164" fill="#36c486" opacity="0.9"/><line x1="463.0033444816053" x2="463.0033444816053" y1="125.7575757575739" y2="141.83030303030174" stroke="#f26464" stroke-width="1" opacity="0.88"/><rect x="461.986011148272" y="131.11515151515238" width="2.034666666666667" height="5.357575757570885" fill="#f26464" opacity="0.9"/><line x1="466.6488294314381" x2="466.6488294314381" y1="131.11515151515238" y2="157.90303030302957" stroke="#36c486" stroke-width="1" opacity="0.88"/><rect x="465.6314960981048" y="131.11515151515238" width="2.034666666666667" height="1" fill="#36c486" opacity="0.9"/><line x1="470.29431438127085" x2="470.29431438127085" y1="120.40000000000305" y2="139.15151515151632" stroke="#f26464" stroke-width="1" opacity="0.88"/><rect x="469.2769810479375" y="128.43636363635935" width="2.034666666666667" height="2.678787878793031" fill="#f26464" opacity="0.9"/><line x1="473.93979933110364" x2="473.93979933110364" y1="131.11515151515238" y2="147.1878787878802" stroke="#f26464" stroke-width="1" opacity="0.88"/><rect x="472.9224659977703" y="133.79393939393782" width="2.034666666666667" height="5.357575757578502" fill="#f26464" opacity="0.9"/><line x1="477.58528428093643" x2="477.58528428093643" y1="139.15151515151632" y2="157.90303030302957" stroke="#f26464" stroke-width="1" opacity="0.88"/><rect x="476.5679509476031" y="141.83030303030174" width="2.034666666666667" height="16.072727272727832" fill="#f26464" opacity="0.9"/><line x1="481.2307692307692" x2="481.2307692307692" y1="131.11515151515238" y2="157.09939393939698" stroke="#36c486" stroke-width="1" opacity="0.88"/><rect x="480.2134358974359" y="136.47272727272326" width="2.034666666666667" height="18.751515151520863" fill="#36c486" opacity="0.9"/><line x1="484.87625418060196" x2="484.87625418060196" y1="131.11515151515238" y2="149.86666666666565" stroke="#36c486" stroke-width="1" opacity="0.88"/><rect x="483.8589208472686" y="144.50909090908715" width="2.034666666666667" height="1" fill="#36c486" opacity="0.9"/><line x1="488.52173913043475" x2="488.52173913043475" y1="128.43636363635935" y2="147.1878787878802" stroke="#f26464" stroke-width="1" opacity="0.88"/><rect x="487.5044057971014" y="139.15151515151632" width="2.034666666666667" height="5.357575757570828" fill="#f26464" opacity="0.9"/><line x1="492.16722408026754" x2="492.16722408026754" y1="131.11515151515238" y2="149.73272727272945" stroke="#36c486" stroke-width="1" opacity="0.88"/><rect x="491.1498907469342" y="131.11515151515238" width="2.034666666666667" height="18.61757575757707" fill="#36c486" opacity="0.9"/><line x1="495.81270903010034" x2="495.81270903010034" y1="123.07878787878848" y2="134.0618181818179" stroke="#f26464" stroke-width="1" opacity="0.88"/><rect x="494.795375696767" y="128.43636363635935" width="2.034666666666667" height="5.3575757575784735" fill="#f26464" opacity="0.9"/><line x1="499.45819397993307" x2="499.45819397993307" y1="117.72121212121" y2="136.47272727272326" stroke="#36c486" stroke-width="1" opacity="0.88"/><rect x="498.44086064659973" y="131.11515151515238" width="2.034666666666667" height="1.017939393935137" fill="#36c486" opacity="0.9"/><line x1="503.10367892976586" x2="503.10367892976586" y1="107.00606060606064" y2="133.79393939393782" stroke="#f26464" stroke-width="1" opacity="0.88"/><rect x="502.0863455964325" y="131.08836363636362" width="2.034666666666667" height="2.705575757574195" fill="#f26464" opacity="0.9"/><line x1="506.74916387959865" x2="506.74916387959865" y1="139.15151515151632" y2="176.65454545454284" stroke="#f26464" stroke-width="1" opacity="0.88"/><rect x="505.7318305462653" y="139.15151515151632" width="2.034666666666667" height="34.82424242424108" fill="#f26464" opacity="0.9"/><line x1="510.3946488294314" x2="510.3946488294314" y1="141.83030303030174" y2="178.69042424242068" stroke="#36c486" stroke-width="1" opacity="0.88"/><rect x="509.37731549609805" y="146.75927272727517" width="2.034666666666667" height="21.85890909090375" fill="#36c486" opacity="0.9"/><line x1="514.0401337792641" x2="514.0401337792641" y1="109.68484848484609" y2="145.8484848484875" stroke="#36c486" stroke-width="1" opacity="0.88"/><rect x="513.0228004459308" y="123.07878787878848" width="2.034666666666667" height="16.072727272727846" fill="#36c486" opacity="0.9"/><line x1="517.685618729097" x2="517.685618729097" y1="107.00606060606064" y2="128.43636363635935" stroke="#36c486" stroke-width="1" opacity="0.88"/><rect x="516.6682853957636" y="109.68484848484609" width="2.034666666666667" height="15.64412121212277" fill="#36c486" opacity="0.9"/><line x1="521.3311036789298" x2="521.3311036789298" y1="104.32727272727521" y2="141.83030303030174" stroke="#f26464" stroke-width="1" opacity="0.88"/><rect x="520.3137703455965" y="109.68484848484609" width="2.034666666666667" height="32.14545454545565" fill="#f26464" opacity="0.9"/><line x1="524.9765886287626" x2="524.9765886287626" y1="144.50909090908715" y2="190.04848484848523" stroke="#f26464" stroke-width="1" opacity="0.88"/><rect x="523.9592552954292" y="144.50909090908715" width="2.034666666666667" height="13.393939393942418" fill="#f26464" opacity="0.9"/><line x1="528.6220735785953" x2="528.6220735785953" y1="139.15151515151632" y2="165.93939393939348" stroke="#36c486" stroke-width="1" opacity="0.88"/><rect x="527.604740245262" y="139.15151515151632" width="2.034666666666667" height="13.60824242423729" fill="#36c486" opacity="0.9"/><line x1="532.267558528428" x2="532.267558528428" y1="141.83030303030174" y2="165.93939393939348" stroke="#f26464" stroke-width="1" opacity="0.88"/><rect x="531.2502251950947" y="141.83030303030174" width="2.034666666666667" height="18.751515151513246" fill="#f26464" opacity="0.9"/><line x1="535.9130434782608" x2="535.9130434782608" y1="152.5454545454511" y2="174.72581818182005" stroke="#36c486" stroke-width="1" opacity="0.88"/><rect x="534.8957101449274" y="157.90303030302957" width="2.034666666666667" height="2.678787878785414" fill="#36c486" opacity="0.9"/><line x1="539.5585284280936" x2="539.5585284280936" y1="156.56363636363685" y2="177.99393939393556" stroke="#f26464" stroke-width="1" opacity="0.88"/><rect x="538.5411950947603" y="165.93939393939348" width="2.034666666666667" height="9.375757575756637" fill="#f26464" opacity="0.9"/><line x1="543.2040133779265" x2="543.2040133779265" y1="168.64496969696768" y2="179.33333333333587" stroke="#36c486" stroke-width="1" opacity="0.88"/><rect x="542.1866800445931" y="171.29696969697196" width="2.034666666666667" height="7.714909090906303" fill="#36c486" opacity="0.9"/><line x1="546.8494983277592" x2="546.8494983277592" y1="165.93939393939348" y2="184.69090909090673" stroke="#f26464" stroke-width="1" opacity="0.88"/><rect x="545.8321649944259" y="168.61818181817893" width="2.034666666666667" height="5.30400000000094" fill="#f26464" opacity="0.9"/><line x1="550.4949832775919" x2="550.4949832775919" y1="163.26060606060804" y2="173.9757575757574" stroke="#36c486" stroke-width="1" opacity="0.88"/><rect x="549.4776499442586" y="165.93939393939348" width="2.034666666666667" height="8.009575757575163" fill="#36c486" opacity="0.9"/><line x1="554.1404682274247" x2="554.1404682274247" y1="155.22424242424412" y2="194.6024242424235" stroke="#f26464" stroke-width="1" opacity="0.88"/><rect x="553.1231348940913" y="166.68945454545616" width="2.034666666666667" height="27.912969696967338" fill="#f26464" opacity="0.9"/><line x1="557.7859531772575" x2="557.7859531772575" y1="167.6538181818137" y2="211.47878787878392" stroke="#f26464" stroke-width="1" opacity="0.88"/><rect x="556.7686198439242" y="192.72727272727064" width="2.034666666666667" height="1" fill="#f26464" opacity="0.9"/><line x1="561.4314381270902" x2="561.4314381270902" y1="192.72727272727064" y2="211.47878787878392" stroke="#f26464" stroke-width="1" opacity="0.88"/><rect x="560.4141047937569" y="192.72727272727064" width="2.034666666666667" height="2.6787878787854424" fill="#f26464" opacity="0.9"/><line x1="565.0769230769231" x2="565.0769230769231" y1="176.65454545454284" y2="200.76363636363456" stroke="#36c486" stroke-width="1" opacity="0.88"/><rect x="564.0595897435898" y="179.33333333333587" width="2.034666666666667" height="16.072727272720215" fill="#36c486" opacity="0.9"/><line x1="568.7224080267558" x2="568.7224080267558" y1="179.33333333333587" y2="198.88848484848174" stroke="#36c486" stroke-width="1" opacity="0.88"/><rect x="567.7050746934225" y="184.69090909090673" width="2.034666666666667" height="1" fill="#36c486" opacity="0.9"/><line x1="572.3678929765886" x2="572.3678929765886" y1="168.61818181817893" y2="191.38787878787792" stroke="#36c486" stroke-width="1" opacity="0.88"/><rect x="571.3505596432552" y="173.19890909090597" width="2.034666666666667" height="8.813212121215315" fill="#36c486" opacity="0.9"/><line x1="576.0133779264214" x2="576.0133779264214" y1="165.93939393939348" y2="179.33333333333587" stroke="#36c486" stroke-width="1" opacity="0.88"/><rect x="574.9960445930881" y="172.63636363636468" width="2.034666666666667" height="1" fill="#36c486" opacity="0.9"/><line x1="579.6588628762541" x2="579.6588628762541" y1="182.0121212121213" y2="232.90909090909022" stroke="#f26464" stroke-width="1" opacity="0.88"/><rect x="578.6415295429208" y="182.0121212121213" width="2.034666666666667" height="45.539393939390465" fill="#f26464" opacity="0.9"/><line x1="583.3043478260869" x2="583.3043478260869" y1="227.55151515151175" y2="270.41212121211674" stroke="#f26464" stroke-width="1" opacity="0.88"/><rect x="582.2870144927535" y="238.2666666666687" width="2.034666666666667" height="13.259999999998541" fill="#f26464" opacity="0.9"/><line x1="586.9498327759197" x2="586.9498327759197" y1="220.47951515151303" y2="278.44848484848063" stroke="#36c486" stroke-width="1" opacity="0.88"/><rect x="585.9324994425864" y="220.47951515151303" width="2.034666666666667" height="35.199272727276195" fill="#36c486" opacity="0.9"/><line x1="590.5953177257525" x2="590.5953177257525" y1="214.15757575757695" y2="278.44848484848063" stroke="#f26464" stroke-width="1" opacity="0.88"/><rect x="589.5779843924191" y="222.19393939394087" width="2.034666666666667" height="6.670181818182442" fill="#f26464" opacity="0.9"/><line x1="594.2408026755852" x2="594.2408026755852" y1="223.5333333333336" y2="240.9454545454541" stroke="#f26464" stroke-width="1" opacity="0.88"/><rect x="593.2234693422519" y="228.89090909090444" width="2.034666666666667" height="6.696969696971223" fill="#f26464" opacity="0.9"/><line x1="597.886287625418" x2="597.886287625418" y1="222.19393939394087" y2="251.66060606060347" stroke="#f26464" stroke-width="1" opacity="0.88"/><rect x="596.8689542920847" y="235.58787878787567" width="2.034666666666667" height="16.072727272727803" fill="#f26464" opacity="0.9"/><line x1="601.5317725752508" x2="601.5317725752508" y1="240.9454545454541" y2="249.78545454545062" stroke="#36c486" stroke-width="1" opacity="0.88"/><rect x="600.5144392419174" y="240.9454545454541" width="2.034666666666667" height="8.839999999996508" fill="#36c486" opacity="0.9"/><line x1="605.1772575250836" x2="605.1772575250836" y1="240.9454545454541" y2="262.3757575757528" stroke="#f26464" stroke-width="1" opacity="0.88"/><rect x="604.1599241917503" y="242.28484848484683" width="2.034666666666667" height="20.090909090905967" fill="#f26464" opacity="0.9"/><line x1="608.8227424749164" x2="608.8227424749164" y1="251.68739393939225" y2="286.4848484848446" stroke="#f26464" stroke-width="1" opacity="0.88"/><rect x="607.805409141583" y="267.7333333333313" width="2.034666666666667" height="16.072727272727832" fill="#f26464" opacity="0.9"/><line x1="612.4682274247491" x2="612.4682274247491" y1="246.3030303030326" y2="286.4848484848446" stroke="#36c486" stroke-width="1" opacity="0.88"/><rect x="611.4508940914158" y="257.0181818181819" width="2.034666666666667" height="24.109090909091776" fill="#36c486" opacity="0.9"/><line x1="616.113712374582" x2="616.113712374582" y1="248.23175757575538" y2="261.0363636363601" stroke="#f26464" stroke-width="1" opacity="0.88"/><rect x="615.0963790412486" y="252.9999999999962" width="2.034666666666667" height="8.036363636363888" fill="#f26464" opacity="0.9"/><line x1="619.7591973244147" x2="619.7591973244147" y1="257.0181818181819" y2="267.7333333333313" stroke="#36c486" stroke-width="1" opacity="0.88"/><rect x="618.7418639910813" y="259.69696969696736" width="2.034666666666667" height="1.3393939393927212" fill="#36c486" opacity="0.9"/><line x1="623.4046822742474" x2="623.4046822742474" y1="254.23224242424143" y2="262.34896969697166" stroke="#36c486" stroke-width="1" opacity="0.88"/><rect x="622.3873489409141" y="259.69696969696736" width="2.034666666666667" height="2.652000000004307" fill="#36c486" opacity="0.9"/><line x1="627.0501672240803" x2="627.0501672240803" y1="254.3393939393965" y2="267.7333333333313" stroke="#36c486" stroke-width="1" opacity="0.88"/><rect x="626.0328338907469" y="262.3757575757528" width="2.034666666666667" height="2.330545454546666" fill="#36c486" opacity="0.9"/><line x1="630.695652173913" x2="630.695652173913" y1="243.62424242423955" y2="257.0181818181819" stroke="#36c486" stroke-width="1" opacity="0.88"/><rect x="629.6783188405797" y="243.62424242423955" width="2.034666666666667" height="13.393939393942361" fill="#36c486" opacity="0.9"/><line x1="634.3411371237457" x2="634.3411371237457" y1="245.09757575757612" y2="278.44848484848063" stroke="#f26464" stroke-width="1" opacity="0.88"/><rect x="633.3238037904124" y="245.09757575757612" width="2.034666666666667" height="33.35090909090451" fill="#f26464" opacity="0.9"/><line x1="637.9866220735786" x2="637.9866220735786" y1="268.5905454545414" y2="283.80606060605913" stroke="#f26464" stroke-width="1" opacity="0.88"/><rect x="636.9692887402452" y="275.7696969696952" width="2.034666666666667" height="8.036363636363944" fill="#f26464" opacity="0.9"/><line x1="641.6321070234113" x2="641.6321070234113" y1="267.7333333333313" y2="294.52121212120846" stroke="#36c486" stroke-width="1" opacity="0.88"/><rect x="640.614773690078" y="270.41212121211674" width="2.034666666666667" height="16.072727272727832" fill="#36c486" opacity="0.9"/><line x1="645.2775919732442" x2="645.2775919732442" y1="243.62424242423955" y2="266.3939393939386" stroke="#36c486" stroke-width="1" opacity="0.88"/><rect x="644.2602586399108" y="252.9999999999962" width="2.034666666666667" height="12.375999999999635" fill="#36c486" opacity="0.9"/><line x1="648.9230769230769" x2="648.9230769230769" y1="240.9454545454541" y2="259.69696969696736" stroke="#36c486" stroke-width="1" opacity="0.88"/><rect x="647.9057435897436" y="246.32981818181375" width="2.034666666666667" height="9.05430303030667" fill="#36c486" opacity="0.9"/><line x1="652.5685618729096" x2="652.5685618729096" y1="240.9722424242429" y2="254.3393939393965" stroke="#36c486" stroke-width="1" opacity="0.88"/><rect x="651.5512285395763" y="249.0086060606068" width="2.034666666666667" height="2.9198787878767405" fill="#36c486" opacity="0.9"/><line x1="656.2140468227425" x2="656.2140468227425" y1="219.5151515151478" y2="254.3393939393965" stroke="#36c486" stroke-width="1" opacity="0.88"/><rect x="655.1967134894091" y="223.5333333333336" width="2.034666666666667" height="30.806060606062914" fill="#36c486" opacity="0.9"/><line x1="659.8595317725752" x2="659.8595317725752" y1="214.15757575757695" y2="238.2666666666687" stroke="#f26464" stroke-width="1" opacity="0.88"/><rect x="658.8421984392419" y="226.21212121211903" width="2.034666666666667" height="12.054545454549668" fill="#f26464" opacity="0.9"/><line x1="663.505016722408" x2="663.505016722408" y1="228.89090909090444" y2="240.9454545454541" stroke="#36c486" stroke-width="1" opacity="0.88"/><rect x="662.4876833890746" y="236.92727272726836" width="2.034666666666667" height="2.4109090909129804" fill="#36c486" opacity="0.9"/><line x1="667.1505016722408" x2="667.1505016722408" y1="187.3696969696998" y2="237.48981818181727" stroke="#36c486" stroke-width="1" opacity="0.88"/><rect x="666.1331683389075" y="203.44242424242" width="2.034666666666667" height="33.48484848484836" fill="#36c486" opacity="0.9"/><line x1="670.7959866220735" x2="670.7959866220735" y1="182.0121212121213" y2="208.79999999999848" stroke="#36c486" stroke-width="1" opacity="0.88"/><rect x="669.7786532887402" y="182.0121212121213" width="2.034666666666667" height="16.07272727272786" fill="#36c486" opacity="0.9"/><line x1="674.4414715719063" x2="674.4414715719063" y1="179.33333333333587" y2="198.08484848484915" stroke="#f26464" stroke-width="1" opacity="0.88"/><rect x="673.4241382385729" y="179.33333333333587" width="2.034666666666667" height="13.393939393934772" fill="#f26464" opacity="0.9"/><line x1="678.0869565217391" x2="678.0869565217391" y1="184.7176969696955" y2="198.08484848484915" stroke="#36c486" stroke-width="1" opacity="0.88"/><rect x="677.0696231884058" y="188.7090909090925" width="2.034666666666667" height="2.678787878785414" fill="#36c486" opacity="0.9"/><line x1="681.7324414715719" x2="681.7324414715719" y1="176.65454545454284" y2="203.44242424242" stroke="#f26464" stroke-width="1" opacity="0.88"/><rect x="680.7151081382385" y="187.3696969696998" width="2.034666666666667" height="16.072727272720215" fill="#f26464" opacity="0.9"/><line x1="685.3779264214046" x2="685.3779264214046" y1="186.03030303029945" y2="243.5974545454508" stroke="#f26464" stroke-width="1" opacity="0.88"/><rect x="684.3605930880713" y="204.24606060606018" width="2.034666666666667" height="32.41333333333574" fill="#f26464" opacity="0.9"/><line x1="689.0234113712374" x2="689.0234113712374" y1="232.935878787879" y2="251.66060606060347" stroke="#f26464" stroke-width="1" opacity="0.88"/><rect x="688.0060780379041" y="238.2666666666687" width="2.034666666666667" height="13.393939393934772" fill="#f26464" opacity="0.9"/><line x1="692.6688963210702" x2="692.6688963210702" y1="251.66060606060347" y2="273.3587878787898" stroke="#f26464" stroke-width="1" opacity="0.88"/><rect x="691.6515629877368" y="251.66060606060347" width="2.034666666666667" height="21.430303030306277" fill="#f26464" opacity="0.9"/><line x1="696.314381270903" x2="696.314381270903" y1="244.96363636363228" y2="273.09090909090975" stroke="#36c486" stroke-width="1" opacity="0.88"/><rect x="695.2970479375697" y="254.3393939393965" width="2.034666666666667" height="18.751515151513246" fill="#36c486" opacity="0.9"/><line x1="699.9598662207358" x2="699.9598662207358" y1="257.286060606062" y2="265.05454545454586" stroke="#f26464" stroke-width="1" opacity="0.88"/><rect x="698.9425328874024" y="259.69696969696736" width="2.034666666666667" height="5.330787878789749" fill="#f26464" opacity="0.9"/><line x1="703.6053511705685" x2="703.6053511705685" y1="240.9454545454541" y2="275.7696969696952" stroke="#36c486" stroke-width="1" opacity="0.88"/><rect x="702.5880178372352" y="240.9454545454541" width="2.034666666666667" height="26.78787878787719" fill="#36c486" opacity="0.9"/><line x1="707.2508361204013" x2="707.2508361204013" y1="211.47878787878392" y2="238.2666666666687" stroke="#36c486" stroke-width="1" opacity="0.88"/><rect x="706.233502787068" y="219.48836363635905" width="2.034666666666667" height="13.42072727273117" fill="#36c486" opacity="0.9"/><line x1="710.8963210702341" x2="710.8963210702341" y1="208.79999999999848" y2="224.8727272727263" stroke="#36c486" stroke-width="1" opacity="0.88"/><rect x="709.8789877369007" y="214.58618181818204" width="2.034666666666667" height="1.2858181818151593" fill="#36c486" opacity="0.9"/><line x1="714.5418060200668" x2="714.5418060200668" y1="216.8363636363624" y2="232.90909090909022" stroke="#f26464" stroke-width="1" opacity="0.88"/><rect x="713.5244726867335" y="219.5151515151478" width="2.034666666666667" height="5.357575757578502" fill="#f26464" opacity="0.9"/><line x1="718.1872909698997" x2="718.1872909698997" y1="206.12121212121303" y2="230.23030303030478" stroke="#36c486" stroke-width="1" opacity="0.88"/><rect x="717.1699576365663" y="208.66606060606225" width="2.034666666666667" height="16.206666666664063" fill="#36c486" opacity="0.9"/><line x1="721.8327759197324" x2="721.8327759197324" y1="205.77296969696667" y2="224.8727272727263" stroke="#f26464" stroke-width="1" opacity="0.88"/><rect x="720.8154425863991" y="206.12121212121303" width="2.034666666666667" height="13.393939393934772" fill="#f26464" opacity="0.9"/><line x1="725.4782608695651" x2="725.4782608695651" y1="214.15757575757695" y2="240.9454545454541" stroke="#f26464" stroke-width="1" opacity="0.88"/><rect x="724.4609275362318" y="214.15757575757695" width="2.034666666666667" height="21.430303030298717" fill="#f26464" opacity="0.9"/><line x1="729.123745819398" x2="729.123745819398" y1="226.6943030303016" y2="243.62424242423955" stroke="#36c486" stroke-width="1" opacity="0.88"/><rect x="728.1064124860646" y="231.5696969696975" width="2.034666666666667" height="1.3393939393927212" fill="#36c486" opacity="0.9"/><line x1="732.7692307692307" x2="732.7692307692307" y1="237.57018181818356" y2="275.7696969696952" stroke="#f26464" stroke-width="1" opacity="0.88"/><rect x="731.7518974358974" y="242.28484848484683" width="2.034666666666667" height="22.769696969699027" fill="#f26464" opacity="0.9"/><line x1="736.4147157190635" x2="736.4147157190635" y1="254.3393939393965" y2="281.1272727272737" stroke="#36c486" stroke-width="1" opacity="0.88"/><rect x="735.3973823857301" y="263.71515151515314" width="2.034666666666667" height="1" fill="#36c486" opacity="0.9"/><line x1="740.0602006688963" x2="740.0602006688963" y1="244.15999999999968" y2="281.1272727272737" stroke="#36c486" stroke-width="1" opacity="0.88"/><rect x="739.042867335563" y="246.3030303030326" width="2.034666666666667" height="21.403515151509936" fill="#36c486" opacity="0.9"/><line x1="743.705685618729" x2="743.705685618729" y1="244.69575757575984" y2="257.0181818181819" stroke="#36c486" stroke-width="1" opacity="0.88"/><rect x="742.6883522853957" y="246.3030303030326" width="2.034666666666667" height="1" fill="#36c486" opacity="0.9"/><line x1="747.3511705685619" x2="747.3511705685619" y1="230.23030303030478" y2="248.98181818181803" stroke="#36c486" stroke-width="1" opacity="0.88"/><rect x="746.3338372352285" y="232.90909090909022" width="2.034666666666667" height="10.71515151514933" fill="#36c486" opacity="0.9"/><line x1="750.9966555183946" x2="750.9966555183946" y1="216.8363636363624" y2="238.2666666666687" stroke="#36c486" stroke-width="1" opacity="0.88"/><rect x="749.9793221850613" y="219.5151515151478" width="2.034666666666667" height="16.07272727272786" fill="#36c486" opacity="0.9"/><line x1="754.6421404682274" x2="754.6421404682274" y1="219.5419393939366" y2="232.90909090909022" stroke="#36c486" stroke-width="1" opacity="0.88"/><rect x="753.624807134894" y="223.5333333333336" width="2.034666666666667" height="1.3393939393927212" fill="#36c486" opacity="0.9"/><line x1="758.2876254180602" x2="758.2876254180602" y1="206.12121212121303" y2="228.623030303032" stroke="#36c486" stroke-width="1" opacity="0.88"/><rect x="757.2702920847269" y="208.79999999999848" width="2.034666666666667" height="10.71515151514933" fill="#36c486" opacity="0.9"/><line x1="761.9331103678929" x2="761.9331103678929" y1="165.93939393939348" y2="211.47878787878392" stroke="#36c486" stroke-width="1" opacity="0.88"/><rect x="760.9157770345596" y="165.93939393939348" width="2.034666666666667" height="45.539393939390436" fill="#36c486" opacity="0.9"/><line x1="765.5785953177257" x2="765.5785953177257" y1="155.2510303030329" y2="173.9757575757574" stroke="#36c486" stroke-width="1" opacity="0.88"/><rect x="764.5612619843923" y="156.56363636363685" width="2.034666666666667" height="12.05454545454208" fill="#36c486" opacity="0.9"/><line x1="769.2240802675585" x2="769.2240802675585" y1="147.1878787878802" y2="172.15418181818208" stroke="#36c486" stroke-width="1" opacity="0.88"/><rect x="768.2067469342252" y="155.14387878787784" width="2.034666666666667" height="6.777333333329864" fill="#36c486" opacity="0.9"/><line x1="772.8695652173913" x2="772.8695652173913" y1="136.47272727272326" y2="164.60000000000076" stroke="#36c486" stroke-width="1" opacity="0.88"/><rect x="771.8522318840579" y="144.50909090908715" width="2.034666666666667" height="6.696969696971223" fill="#36c486" opacity="0.9"/><line x1="776.515050167224" x2="776.515050167224" y1="144.50909090908715" y2="168.18957575757383" stroke="#36c486" stroke-width="1" opacity="0.88"/><rect x="775.4977168338906" y="160.58181818181498" width="2.034666666666667" height="1" fill="#36c486" opacity="0.9"/><line x1="780.1605351170568" x2="780.1605351170568" y1="144.50909090908715" y2="160.58181818181498" stroke="#f26464" stroke-width="1" opacity="0.88"/><rect x="779.1432017837235" y="155.22424242424412" width="2.034666666666667" height="2.6787878787854424" fill="#f26464" opacity="0.9"/><line x1="783.8060200668896" x2="783.8060200668896" y1="149.86666666666565" y2="165.93939393939348" stroke="#f26464" stroke-width="1" opacity="0.88"/><rect x="782.7886867335562" y="157.90303030302957" width="2.034666666666667" height="1" fill="#f26464" opacity="0.9"/><line x1="787.4515050167224" x2="787.4515050167224" y1="123.07878787878848" y2="161.9212121212077" stroke="#36c486" stroke-width="1" opacity="0.88"/><rect x="786.4341716833891" y="127.09696969696662" width="2.034666666666667" height="34.82424242424108" fill="#36c486" opacity="0.9"/><line x1="791.0969899665552" x2="791.0969899665552" y1="112.36363636363913" y2="136.47272727272326" stroke="#f26464" stroke-width="1" opacity="0.88"/><rect x="790.0796566332218" y="123.07878787878848" width="2.034666666666667" height="2.6787878787854282" fill="#f26464" opacity="0.9"/><line x1="794.7424749163879" x2="794.7424749163879" y1="112.36363636363913" y2="121.73939393939575" stroke="#36c486" stroke-width="1" opacity="0.88"/><rect x="793.7251415830546" y="116.64969696969735" width="2.034666666666667" height="5.062909090909642" fill="#36c486" opacity="0.9"/><line x1="798.3879598662207" x2="798.3879598662207" y1="112.36363636363913" y2="125.7575757575739" stroke="#f26464" stroke-width="1" opacity="0.88"/><rect x="797.3706265328874" y="115.04242424242457" width="2.034666666666667" height="8.86678787878526" fill="#f26464" opacity="0.9"/><line x1="802.0334448160535" x2="802.0334448160535" y1="115.25672727272709" y2="147.1878787878802" stroke="#f26464" stroke-width="1" opacity="0.88"/><rect x="801.0161114827201" y="117.72121212121" width="2.034666666666667" height="16.3941818181854" fill="#f26464" opacity="0.9"/><line x1="805.6789297658862" x2="805.6789297658862" y1="133.79393939393782" y2="149.86666666666565" stroke="#36c486" stroke-width="1" opacity="0.88"/><rect x="804.6615964325529" y="133.79393939393782" width="2.034666666666667" height="4.018181818185781" fill="#36c486" opacity="0.9"/><line x1="809.3244147157191" x2="809.3244147157191" y1="125.7575757575739" y2="143.65187878787705" stroke="#36c486" stroke-width="1" opacity="0.88"/><rect x="808.3070813823857" y="130.68654545454734" width="2.034666666666667" height="1" fill="#36c486" opacity="0.9"/><line x1="812.9698996655518" x2="812.9698996655518" y1="125.7575757575739" y2="141.80351515151295" stroke="#f26464" stroke-width="1" opacity="0.88"/><rect x="811.9525663322185" y="129.77575757575968" width="2.034666666666667" height="1.3393939393926928" fill="#f26464" opacity="0.9"/><line x1="816.6153846153845" x2="816.6153846153845" y1="131.11515151515238" y2="145.8484848484875" stroke="#f26464" stroke-width="1" opacity="0.88"/><rect x="815.5980512820512" y="133.79393939393782" width="2.034666666666667" height="5.357575757578502" fill="#f26464" opacity="0.9"/><line x1="820.2608695652174" x2="820.2608695652174" y1="136.47272727272326" y2="155.22424242424412" stroke="#f26464" stroke-width="1" opacity="0.88"/><rect x="819.243536231884" y="140.490909090909" width="2.034666666666667" height="4.018181818178135" fill="#f26464" opacity="0.9"/><line x1="823.9063545150501" x2="823.9063545150501" y1="136.47272727272326" y2="152.5454545454511" stroke="#36c486" stroke-width="1" opacity="0.88"/><rect x="822.8890211817168" y="136.47272727272326" width="2.034666666666667" height="10.715151515156947" fill="#36c486" opacity="0.9"/><line x1="827.5518394648828" x2="827.5518394648828" y1="125.7575757575739" y2="147.1878787878802" stroke="#f26464" stroke-width="1" opacity="0.88"/><rect x="826.5345061315495" y="135.13333333333054" width="2.034666666666667" height="1.3393939393927212" fill="#f26464" opacity="0.9"/><line x1="831.1973244147157" x2="831.1973244147157" y1="115.04242424242457" y2="139.15151515151632" stroke="#36c486" stroke-width="1" opacity="0.88"/><rect x="830.1799910813824" y="116.48896969697235" width="2.034666666666667" height="14.65296969696881" fill="#36c486" opacity="0.9"/><line x1="834.8428093645484" x2="834.8428093645484" y1="102.98787878787489" y2="115.04242424242457" stroke="#36c486" stroke-width="1" opacity="0.88"/><rect x="833.8254760312151" y="107.11321212120811" width="2.034666666666667" height="7.929212121216466" fill="#36c486" opacity="0.9"/><line x1="838.4882943143813" x2="838.4882943143813" y1="104.86303030302774" y2="125.7575757575739" stroke="#f26464" stroke-width="1" opacity="0.88"/><rect x="837.4709609810479" y="106.57745454545558" width="2.034666666666667" height="16.501333333332894" fill="#f26464" opacity="0.9"/><line x1="842.133779264214" x2="842.133779264214" y1="80.21818181818348" y2="123.07878787878848" stroke="#36c486" stroke-width="1" opacity="0.88"/><rect x="841.1164459308807" y="87.10266666666844" width="2.034666666666667" height="35.976121212120034" fill="#36c486" opacity="0.9"/><line x1="845.7792642140467" x2="845.7792642140467" y1="74.860606060605" y2="96.29090909091131" stroke="#f26464" stroke-width="1" opacity="0.88"/><rect x="844.7619308807134" y="85.57575757575435" width="2.034666666666667" height="10.715151515156961" fill="#f26464" opacity="0.9"/><line x1="849.4247491638796" x2="849.4247491638796" y1="74.860606060605" y2="94.95151515151099" stroke="#36c486" stroke-width="1" opacity="0.88"/><rect x="848.4074158305463" y="83.43272727272904" width="2.034666666666667" height="10.179393939389229" fill="#36c486" opacity="0.9"/><line x1="853.0702341137123" x2="853.0702341137123" y1="82.89696969696891" y2="93.58533333332949" stroke="#f26464" stroke-width="1" opacity="0.88"/><rect x="852.052900780379" y="82.89696969696891" width="2.034666666666667" height="5.3575757575784735" fill="#f26464" opacity="0.9"/><line x1="856.7157190635451" x2="856.7157190635451" y1="80.21818181818348" y2="98.96969696969674" stroke="#f26464" stroke-width="1" opacity="0.88"/><rect x="855.6983857302117" y="88.25454545454738" width="2.034666666666667" height="2.6787878787854424" fill="#f26464" opacity="0.9"/><line x1="860.3612040133779" x2="860.3612040133779" y1="92.27272727272555" y2="110.05987878788123" stroke="#f26464" stroke-width="1" opacity="0.88"/><rect x="859.3438706800446" y="92.27272727272555" width="2.034666666666667" height="4.0181818181857665" fill="#f26464" opacity="0.9"/><line x1="864.0066889632106" x2="864.0066889632106" y1="61.466666666662604" y2="101.64848484848217" stroke="#36c486" stroke-width="1" opacity="0.88"/><rect x="862.9893556298773" y="78.87878787879076" width="2.034666666666667" height="14.733333333327508" fill="#36c486" opacity="0.9"/><line x1="867.6521739130434" x2="867.6521739130434" y1="61.76133333333144" y2="82.89696969696891" stroke="#36c486" stroke-width="1" opacity="0.88"/><rect x="866.63484057971" y="66.82424242424108" width="2.034666666666667" height="16.072727272727832" fill="#36c486" opacity="0.9"/><line x1="871.2976588628762" x2="871.2976588628762" y1="61.466666666662604" y2="109.68484848484609" stroke="#f26464" stroke-width="1" opacity="0.88"/><rect x="870.2803255295429" y="64.14545454545566" width="2.034666666666667" height="45.53939393939042" fill="#f26464" opacity="0.9"/><line x1="874.943143812709" x2="874.943143812709" y1="98.96969696969674" y2="112.36363636363913" stroke="#36c486" stroke-width="1" opacity="0.88"/><rect x="873.9258104793756" y="108.34545454545336" width="2.034666666666667" height="4.0181818181857665" fill="#36c486" opacity="0.9"/><line x1="878.5886287625417" x2="878.5886287625417" y1="100.68412121211698" y2="117.72121212121" stroke="#f26464" stroke-width="1" opacity="0.88"/><rect x="877.5712954292084" y="104.32727272727521" width="2.034666666666667" height="12.054545454542065" fill="#f26464" opacity="0.9"/><line x1="882.2341137123746" x2="882.2341137123746" y1="105.66666666666794" y2="123.07878787878848" stroke="#36c486" stroke-width="1" opacity="0.88"/><rect x="881.2167803790412" y="107.00606060606064" width="2.034666666666667" height="2.6787878787854424" fill="#36c486" opacity="0.9"/><line x1="885.8795986622073" x2="885.8795986622073" y1="107.03284848484942" y2="131.11515151515238" stroke="#f26464" stroke-width="1" opacity="0.88"/><rect x="884.862265328874" y="112.36363636363913" width="2.034666666666667" height="16.072727272720215" fill="#f26464" opacity="0.9"/><line x1="889.5250836120401" x2="889.5250836120401" y1="112.09575757575907" y2="139.74084848484637" stroke="#f26464" stroke-width="1" opacity="0.88"/><rect x="888.5077502787068" y="131.11515151515238" width="2.034666666666667" height="6.696969696971223" fill="#f26464" opacity="0.9"/><line x1="893.1705685618729" x2="893.1705685618729" y1="133.79393939393782" y2="144.50909090908715" stroke="#36c486" stroke-width="1" opacity="0.88"/><rect x="892.1532352285395" y="134.3029090909092" width="2.034666666666667" height="2.1698181818140654" fill="#36c486" opacity="0.9"/><line x1="896.8160535117056" x2="896.8160535117056" y1="128.43636363635935" y2="155.22424242424412" stroke="#f26464" stroke-width="1" opacity="0.88"/><rect x="895.7987201783723" y="133.79393939393782" width="2.034666666666667" height="21.430303030306305" fill="#f26464" opacity="0.9"/><line x1="900.4615384615385" x2="900.4615384615385" y1="149.86666666666565" y2="160.55503030302623" stroke="#f26464" stroke-width="1" opacity="0.88"/><rect x="899.4442051282051" y="155.22424242424412" width="2.034666666666667" height="3.803878787875618" fill="#f26464" opacity="0.9"/><line x1="904.1070234113712" x2="904.1070234113712" y1="149.86666666666565" y2="160.58181818181498" stroke="#f26464" stroke-width="1" opacity="0.88"/><rect x="903.0896900780378" y="155.2510303030329" width="2.034666666666667" height="3.2681212121154886" fill="#f26464" opacity="0.9"/><line x1="907.7525083612039" x2="907.7525083612039" y1="131.11515151515238" y2="156.56363636363685" stroke="#36c486" stroke-width="1" opacity="0.88"/><rect x="906.7351750278706" y="133.79393939393782" width="2.034666666666667" height="18.751515151513274" fill="#36c486" opacity="0.9"/><line x1="911.3979933110368" x2="911.3979933110368" y1="128.43636363635935" y2="141.83030303030174" stroke="#f26464" stroke-width="1" opacity="0.88"/><rect x="910.3806599777034" y="133.79393939393782" width="2.034666666666667" height="1" fill="#f26464" opacity="0.9"/><line x1="915.0434782608695" x2="915.0434782608695" y1="120.40000000000305" y2="133.79393939393782" stroke="#f26464" stroke-width="1" opacity="0.88"/><rect x="914.0261449275362" y="128.43636363635935" width="2.034666666666667" height="2.678787878793031" fill="#f26464" opacity="0.9"/><line x1="918.6889632107022" x2="918.6889632107022" y1="120.40000000000305" y2="152.51866666666234" stroke="#f26464" stroke-width="1" opacity="0.88"/><rect x="917.6716298773689" y="133.79393939393782" width="2.034666666666667" height="4.741454545452058" fill="#f26464" opacity="0.9"/><line x1="922.3344481605351" x2="922.3344481605351" y1="123.07878787878848" y2="140.490909090909" stroke="#f26464" stroke-width="1" opacity="0.88"/><rect x="921.3171148272017" y="133.79393939393782" width="2.034666666666667" height="4.580727272727074" fill="#f26464" opacity="0.9"/><line x1="925.9799331103678" x2="925.9799331103678" y1="131.11515151515238" y2="141.83030303030174" stroke="#f26464" stroke-width="1" opacity="0.88"/><rect x="924.9625997770345" y="133.79393939393782" width="2.034666666666667" height="8.036363636363916" fill="#f26464" opacity="0.9"/><line x1="929.6254180602007" x2="929.6254180602007" y1="133.25818181817772" y2="171.29696969697196" stroke="#f26464" stroke-width="1" opacity="0.88"/><rect x="928.6080847268673" y="133.25818181817772" width="2.034666666666667" height="38.03878787879424" fill="#f26464" opacity="0.9"/><line x1="933.2709030100334" x2="933.2709030100334" y1="150.83103030303084" y2="179.33333333333587" stroke="#36c486" stroke-width="1" opacity="0.88"/><rect x="932.2535696767001" y="163.9303030303044" width="2.034666666666667" height="10.045454545452998" fill="#36c486" opacity="0.9"/><line x1="936.9163879598661" x2="936.9163879598661" y1="155.19745454545537" y2="171.29696969697196" stroke="#36c486" stroke-width="1" opacity="0.88"/><rect x="935.8990546265328" y="160.3407272727237" width="2.034666666666667" height="5.5986666666697715" fill="#36c486" opacity="0.9"/><line x1="940.561872909699" x2="940.561872909699" y1="149.86666666666565" y2="162.18909090908778" stroke="#36c486" stroke-width="1" opacity="0.88"/><rect x="939.5445395763657" y="153.108" width="2.034666666666667" height="2.330545454546666" fill="#36c486" opacity="0.9"/><line x1="944.2073578595317" x2="944.2073578595317" y1="80.21818181818348" y2="157.90303030302957" stroke="#36c486" stroke-width="1" opacity="0.88"/><rect x="943.1900245261984" y="85.57575757575435" width="2.034666666666667" height="72.32727272727521" fill="#36c486" opacity="0.9"/><line x1="947.8528428093645" x2="947.8528428093645" y1="64.14545454545566" y2="107.00606060606064" stroke="#36c486" stroke-width="1" opacity="0.88"/><rect x="946.8355094760311" y="64.14545454545566" width="2.034666666666667" height="24.10909090909172" fill="#36c486" opacity="0.9"/><line x1="951.4983277591973" x2="951.4983277591973" y1="56.10909090909174" y2="77.53939393939044" stroke="#f26464" stroke-width="1" opacity="0.88"/><rect x="950.480994425864" y="61.466666666662604" width="2.034666666666667" height="5.3575757575784735" fill="#f26464" opacity="0.9"/><line x1="955.14381270903" x2="955.14381270903" y1="58.787878787877176" y2="77.53939393939044" stroke="#f26464" stroke-width="1" opacity="0.88"/><rect x="954.1264793756967" y="64.46690909090565" width="2.034666666666667" height="7.580969696970087" fill="#f26464" opacity="0.9"/><line x1="958.7892976588628" x2="958.7892976588628" y1="50.75151515151326" y2="85.57575757575435" stroke="#36c486" stroke-width="1" opacity="0.88"/><rect x="957.7719643255294" y="72.18181818181957" width="2.034666666666667" height="1.3393939393927212" fill="#36c486" opacity="0.9"/><line x1="962.4347826086956" x2="962.4347826086956" y1="48.60848484848796" y2="73.76230303030357" stroke="#36c486" stroke-width="1" opacity="0.88"/><rect x="961.4174492753623" y="55.7340606060566" width="2.034666666666667" height="16.796000000001726" fill="#36c486" opacity="0.9"/><line x1="966.0802675585284" x2="966.0802675585284" y1="50.75151515151326" y2="81.55757575757619" stroke="#f26464" stroke-width="1" opacity="0.88"/><rect x="965.062934225195" y="55.30545454545154" width="2.034666666666667" height="22.233939393938897" fill="#f26464" opacity="0.9"/><line x1="969.7257525083611" x2="969.7257525083611" y1="51.019393939393325" y2="90.90654545454404" stroke="#f26464" stroke-width="1" opacity="0.88"/><rect x="968.7084191750278" y="75.15527272727383" width="2.034666666666667" height="13.099272727273558" fill="#f26464" opacity="0.9"/><line x1="973.371237458194" x2="973.371237458194" y1="80.21818181818348" y2="93.07636363636573" stroke="#36c486" stroke-width="1" opacity="0.88"/><rect x="972.3539041248606" y="84.23636363636163" width="2.034666666666667" height="4.018181818185752" fill="#36c486" opacity="0.9"/><line x1="977.0167224080267" x2="977.0167224080267" y1="64.17224242424442" y2="86.325818181817" stroke="#36c486" stroke-width="1" opacity="0.88"/><rect x="975.9993890746933" y="67.25284848484614" width="2.034666666666667" height="12.992121212126108" fill="#36c486" opacity="0.9"/><line x1="980.6622073578595" x2="980.6622073578595" y1="56.10909090909174" y2="74.860606060605" stroke="#36c486" stroke-width="1" opacity="0.88"/><rect x="979.6448740245262" y="61.466666666662604" width="2.034666666666667" height="13.39393939394239" fill="#36c486" opacity="0.9"/><line x1="984.3076923076923" x2="984.3076923076923" y1="42.715151515149344" y2="64.14545454545566" stroke="#36c486" stroke-width="1" opacity="0.88"/><rect x="983.2903589743589" y="45.39393939394239" width="2.034666666666667" height="14.06363636363114" fill="#36c486" opacity="0.9"/><line x1="987.953177257525" x2="987.953177257525" y1="40.036363636363916" y2="50.75151515151326" stroke="#36c486" stroke-width="1" opacity="0.88"/><rect x="986.9358439241917" y="43.33127272727578" width="2.034666666666667" height="2.0626666666666083" fill="#36c486" opacity="0.9"/><line x1="991.5986622073578" x2="991.5986622073578" y1="40.97393939394034" y2="74.860606060605" stroke="#f26464" stroke-width="1" opacity="0.88"/><rect x="990.5813288740245" y="41.241818181820406" width="2.034666666666667" height="33.61878787878459" fill="#f26464" opacity="0.9"/><line x1="995.2441471571906" x2="995.2441471571906" y1="64.46690909090565" y2="98.32678787878915" stroke="#f26464" stroke-width="1" opacity="0.88"/><rect x="994.2268138238572" y="75.47672727272382" width="2.034666666666667" height="20.814181818187492" fill="#f26464" opacity="0.9"/><line x1="998.8896321070233" x2="998.8896321070233" y1="86.325818181817" y2="105.66666666666794" stroke="#36c486" stroke-width="1" opacity="0.88"/><rect x="997.87229877369" y="91.41551515151542" width="2.034666666666667" height="7.55418181818132" fill="#36c486" opacity="0.9"/><line x1="1002.5351170568562" x2="1002.5351170568562" y1="77.53939393939044" y2="104.32727272727521" stroke="#36c486" stroke-width="1" opacity="0.88"/><rect x="1001.5177837235228" y="80.21818181818348" width="2.034666666666667" height="24.109090909091734" fill="#36c486" opacity="0.9"/><line x1="1006.1806020066889" x2="1006.1806020066889" y1="74.860606060605" y2="88.25454545454738" stroke="#f26464" stroke-width="1" opacity="0.88"/><rect x="1005.1632686733556" y="76.36072727273032" width="2.034666666666667" height="10.55442424242436" fill="#f26464" opacity="0.9"/><line x1="1009.8260869565216" x2="1009.8260869565216" y1="66.82424242424108" y2="93.58533333332949" stroke="#36c486" stroke-width="1" opacity="0.88"/><rect x="1008.8087536231883" y="77.53939393939044" width="2.034666666666667" height="16.04593939393905" fill="#36c486" opacity="0.9"/><line x1="1013.4715719063545" x2="1013.4715719063545" y1="74.860606060605" y2="80.21818181818348" stroke="#f26464" stroke-width="1" opacity="0.88"/><rect x="1012.4542385730211" y="74.96775757576006" width="2.034666666666667" height="3.9110303030306994" fill="#f26464" opacity="0.9"/><line x1="1017.1170568561872" x2="1017.1170568561872" y1="85.30787878788189" y2="112.36363636363913" stroke="#f26464" stroke-width="1" opacity="0.88"/><rect x="1016.0997235228539" y="85.30787878788189" width="2.034666666666667" height="21.698181818178753" fill="#f26464" opacity="0.9"/><line x1="1020.7625418060201" x2="1020.7625418060201" y1="101.64848484848217" y2="117.72121212121" stroke="#f26464" stroke-width="1" opacity="0.88"/><rect x="1019.7452084726867" y="101.64848484848217" width="2.034666666666667" height="2.6787878787930453" fill="#f26464" opacity="0.9"/><line x1="1024.408026755853" x2="1024.408026755853" y1="98.96969696969674" y2="115.04242424242457" stroke="#f26464" stroke-width="1" opacity="0.88"/><rect x="1023.3906934225196" y="103.36290909091002" width="2.034666666666667" height="10.741939393938125" fill="#f26464" opacity="0.9"/><line x1="1028.0535117056857" x2="1028.0535117056857" y1="107.03284848484942" y2="117.72121212121" stroke="#36c486" stroke-width="1" opacity="0.88"/><rect x="1027.0361783723524" y="109.68484848484609" width="2.034666666666667" height="4.0181818181857665" fill="#36c486" opacity="0.9"/><line x1="1031.6989966555184" x2="1031.6989966555184" y1="82.89696969696891" y2="111.4260606060627" stroke="#36c486" stroke-width="1" opacity="0.88"/><rect x="1030.6816633221852" y="85.57575757575435" width="2.034666666666667" height="24.109090909091734" fill="#36c486" opacity="0.9"/><line x1="1035.3444816053511" x2="1035.3444816053511" y1="74.860606060605" y2="82.89696969696891" stroke="#36c486" stroke-width="1" opacity="0.88"/><rect x="1034.327148272018" y="77.4054545454542" width="2.034666666666667" height="2.8127272727292763" fill="#36c486" opacity="0.9"/><line x1="1038.9899665551839" x2="1038.9899665551839" y1="77.53939393939044" y2="85.57575757575435" stroke="#f26464" stroke-width="1" opacity="0.88"/><rect x="1037.9726332218506" y="78.87878787879076" width="2.034666666666667" height="4.0181818181781495" fill="#f26464" opacity="0.9"/><line x1="1042.6354515050166" x2="1042.6354515050166" y1="81.18254545454866" y2="94.95151515151099" stroke="#f26464" stroke-width="1" opacity="0.88"/><rect x="1041.6181181716834" y="90.90654545454404" width="2.034666666666667" height="1" fill="#f26464" opacity="0.9"/><line x1="1046.2809364548493" x2="1046.2809364548493" y1="86.91515151515468" y2="104.32727272727521" stroke="#36c486" stroke-width="1" opacity="0.88"/><rect x="1045.263603121516" y="86.91515151515468" width="2.034666666666667" height="4.0181818181781495" fill="#36c486" opacity="0.9"/><line x1="1049.926421404682" x2="1049.926421404682" y1="66.82424242424108" y2="82.89696969696891" stroke="#36c486" stroke-width="1" opacity="0.88"/><rect x="1048.9090880713488" y="73.52121212121229" width="2.034666666666667" height="9.375757575756623" fill="#36c486" opacity="0.9"/><line x1="1053.571906354515" x2="1053.571906354515" y1="66.82424242424108" y2="77.53939393939044" stroke="#f26464" stroke-width="1" opacity="0.88"/><rect x="1052.5545730211818" y="73.52121212121229" width="2.034666666666667" height="1.339393939392707" fill="#f26464" opacity="0.9"/><line x1="1057.2173913043478" x2="1057.2173913043478" y1="58.787878787877176" y2="79.41454545454329" stroke="#36c486" stroke-width="1" opacity="0.88"/><rect x="1056.2000579710145" y="58.787878787877176" width="2.034666666666667" height="17.41212121212054" fill="#36c486" opacity="0.9"/><line x1="1060.8628762541805" x2="1060.8628762541805" y1="50.75151515151326" y2="62.431030303027796" stroke="#36c486" stroke-width="1" opacity="0.88"/><rect x="1059.8455429208473" y="58.76109090908841" width="2.034666666666667" height="3.669939393939387" fill="#36c486" opacity="0.9"/><line x1="1064.5083612040135" x2="1064.5083612040135" y1="44.054545454542065" y2="55.84121212121167" stroke="#36c486" stroke-width="1" opacity="0.88"/><rect x="1063.4910278706802" y="50.75151515151326" width="2.034666666666667" height="1" fill="#36c486" opacity="0.9"/><line x1="1068.1538461538462" x2="1068.1538461538462" y1="45.39393939394239" y2="56.10909090909174" stroke="#36c486" stroke-width="1" opacity="0.88"/><rect x="1067.136512820513" y="45.39393939394239" width="2.034666666666667" height="8.036363636363916" fill="#36c486" opacity="0.9"/><line x1="1071.799331103679" x2="1071.799331103679" y1="34.678787878785435" y2="45.39393939394239" stroke="#36c486" stroke-width="1" opacity="0.88"/><rect x="1070.7819977703457" y="42.634787878790654" width="2.034666666666667" height="1" fill="#36c486" opacity="0.9"/><line x1="1075.4448160535117" x2="1075.4448160535117" y1="37.35757575757848" y2="50.75151515151326" stroke="#f26464" stroke-width="1" opacity="0.88"/><rect x="1074.4274827201784" y="45.36715151515362" width="2.034666666666667" height="5.384363636359637" fill="#f26464" opacity="0.9"/><line x1="1079.0903010033444" x2="1079.0903010033444" y1="40.036363636363916" y2="57.448484848484455" stroke="#f26464" stroke-width="1" opacity="0.88"/><rect x="1078.0729676700112" y="45.420727272723546" width="2.034666666666667" height="8.116727272730223" fill="#f26464" opacity="0.9"/><line x1="1082.7357859531771" x2="1082.7357859531771" y1="45.39393939394239" y2="58.787878787877176" stroke="#f26464" stroke-width="1" opacity="0.88"/><rect x="1081.718452619844" y="45.39393939394239" width="2.034666666666667" height="10.715151515149351" fill="#f26464" opacity="0.9"/><line x1="1086.3812709030099" x2="1086.3812709030099" y1="41.563272727270395" y2="56.2162424242392" stroke="#36c486" stroke-width="1" opacity="0.88"/><rect x="1085.3639375696766" y="42.715151515149344" width="2.034666666666667" height="13.393939393942397" fill="#36c486" opacity="0.9"/><line x1="1090.0267558528428" x2="1090.0267558528428" y1="37.35757575757848" y2="56.08230303030297" stroke="#f26464" stroke-width="1" opacity="0.88"/><rect x="1089.0094225195096" y="40.036363636363916" width="2.034666666666667" height="2.5180606060604376" fill="#f26464" opacity="0.9"/><line x1="1093.6722408026756" x2="1093.6722408026756" y1="32" y2="53.16242424242624" stroke="#36c486" stroke-width="1" opacity="0.88"/><rect x="1092.6549074693423" y="40.036363636363916" width="2.034666666666667" height="5.3575757575784735" fill="#36c486" opacity="0.9"/><line x1="1097.3177257525083" x2="1097.3177257525083" y1="32" y2="48.07272727272783" stroke="#f26464" stroke-width="1" opacity="0.88"/><rect x="1096.300392419175" y="39.92921212120884" width="2.034666666666667" height="5.4915151515147045" fill="#f26464" opacity="0.9"/><line x1="1100.963210702341" x2="1100.963210702341" y1="43.97418181818337" y2="67.17248484848746" stroke="#f26464" stroke-width="1" opacity="0.88"/><rect x="1099.9458773690078" y="48.07272727272783" width="2.034666666666667" height="13.393939393934772" fill="#f26464" opacity="0.9"/><line x1="1104.6086956521738" x2="1104.6086956521738" y1="58.787878787877176" y2="69.50303030302652" stroke="#36c486" stroke-width="1" opacity="0.88"/><rect x="1103.5913623188405" y="58.787878787877176" width="2.034666666666667" height="2.6787878787854282" fill="#36c486" opacity="0.9"/><line x1="1108.2541806020067" x2="1108.2541806020067" y1="48.07272727272783" y2="62.80606060606294" stroke="#36c486" stroke-width="1" opacity="0.88"/><rect x="1107.2368472686735" y="48.87636363636041" width="2.034666666666667" height="1.8751515151528508" fill="#36c486" opacity="0.9"/><line x1="1111.8996655518395" x2="1111.8996655518395" y1="42.715151515149344" y2="53.29636363636247" stroke="#36c486" stroke-width="1" opacity="0.88"/><rect x="1110.8823322185062" y="48.0995151515166" width="2.034666666666667" height="2.6519999999966615" fill="#36c486" opacity="0.9"/><line x1="1115.5451505016722" x2="1115.5451505016722" y1="37.35757575757848" y2="48.287030303030356" stroke="#36c486" stroke-width="1" opacity="0.88"/><rect x="1114.527817168339" y="44.054545454542065" width="2.034666666666667" height="4.0181818181857665" fill="#36c486" opacity="0.9"/><line x1="1119.190635451505" x2="1119.190635451505" y1="37.35757575757848" y2="56.10909090909174" stroke="#f26464" stroke-width="1" opacity="0.88"/><rect x="1118.1733021181717" y="42.715151515149344" width="2.034666666666667" height="13.393939393942397" fill="#f26464" opacity="0.9"/><line x1="1122.8361204013377" x2="1122.8361204013377" y1="50.72472727272449" y2="59.83260606060867" stroke="#f26464" stroke-width="1" opacity="0.88"/><rect x="1121.8187870680044" y="50.72472727272449" width="2.034666666666667" height="1" fill="#f26464" opacity="0.9"/><line x1="1126.4816053511704" x2="1126.4816053511704" y1="40.036363636363916" y2="61.466666666662604" stroke="#36c486" stroke-width="1" opacity="0.88"/><rect x="1125.4642720178372" y="53.16242424242624" width="2.034666666666667" height="1" fill="#36c486" opacity="0.9"/><line x1="1130.1270903010034" x2="1130.1270903010034" y1="46.251151515152515" y2="56.10909090909174" stroke="#f26464" stroke-width="1" opacity="0.88"/><rect x="1129.1097569676701" y="53.430303030306305" width="2.034666666666667" height="1.12509090909019" fill="#f26464" opacity="0.9"/><line x1="1133.772575250836" x2="1133.772575250836" y1="40.036363636363916" y2="54.76969696969903" stroke="#36c486" stroke-width="1" opacity="0.88"/><rect x="1132.7552419175029" y="40.036363636363916" width="2.034666666666667" height="12.77781818181596" fill="#36c486" opacity="0.9"/><line x1="1137.4180602006688" x2="1137.4180602006688" y1="37.35757575757848" y2="50.75151515151326" stroke="#f26464" stroke-width="1" opacity="0.88"/><rect x="1136.4007268673356" y="37.35757575757848" width="2.034666666666667" height="12.054545454542058" fill="#f26464" opacity="0.9"/><line x1="1141.0635451505016" x2="1141.0635451505016" y1="49.09066666666294" y2="61.466666666662604" stroke="#f26464" stroke-width="1" opacity="0.88"/><rect x="1140.0462118171683" y="49.41212121212054" width="2.034666666666667" height="6.696969696971202" fill="#f26464" opacity="0.9"/><line x1="1144.7090301003343" x2="1144.7090301003343" y1="50.75151515151326" y2="66.82424242424108" stroke="#f26464" stroke-width="1" opacity="0.88"/><rect x="1143.691696767001" y="53.430303030306305" width="2.034666666666667" height="5.357575757570871" fill="#f26464" opacity="0.9"/><line x1="1148.3545150501673" x2="1148.3545150501673" y1="53.45709090908746" y2="69.50303030302652" stroke="#36c486" stroke-width="1" opacity="0.88"/><rect x="1147.337181716834" y="53.45709090908746" width="2.034666666666667" height="13.367151515153616" fill="#36c486" opacity="0.9"/><line x1="1152" x2="1152" y1="48.07272727272783" y2="58.787878787877176" stroke="#f26464" stroke-width="1" opacity="0.88"/><rect x="1150.9826666666668" y="53.45709090908746" width="2.034666666666667" height="5.330787878789714" fill="#f26464" opacity="0.9"/><g><circle cx="62" cy="403.0121212121175" r="5" fill="#e8edf5" stroke="#111827" stroke-width="1.5"/><text x="72" y="396.0121212121175" text-anchor="start" fill="#e8edf5" font-size="11" font-weight="700">OPEN 189.84</text></g><g><rect x="114.32775919732441" y="226.90909090909022" width="12" height="12" transform="rotate(45 120.32775919732441 232.90909090909022)" fill="#00ff88" stroke="#111827" stroke-width="1.5"/><text x="130.3277591973244" y="224.90909090909022" text-anchor="start" fill="#00ff88" font-size="11" font-weight="700">LEAP BUY 0.33%</text></g><g><circle cx="123.97324414715719" cy="278.44848484848063" r="5" fill="#54d990" stroke="#111827" stroke-width="1.5"/><text x="133.97324414715717" y="271.44848484848063" text-anchor="start" fill="#54d990" font-size="11" font-weight="700">REV BUY</text></g><g><circle cx="145.84615384615384" cy="377.56363636363307" r="5" fill="#ffcc66" stroke="#111827" stroke-width="1.5"/><text x="155.84615384615384" y="370.56363636363307" text-anchor="start" fill="#ffcc66" font-size="11" font-weight="700">QUICK RETEST</text></g><g><circle cx="1093.6722408026756" cy="32" r="5" fill="#67b7ff" stroke="#111827" stroke-width="1.5"/><text x="1083.6722408026756" y="25" text-anchor="end" fill="#67b7ff" font-size="11" font-weight="700">EXIT STUDY 0.48%</text></g><text x="62" y="504" fill="#b8c6d8" font-size="11">189.57 - 191.22</text></svg>